<?xml version="1.0" standalone="no"?>
<!DOCTYPE svg PUBLIC "-//W3C//DTD SVG 20010904//EN"
 "http://www.w3.org/TR/2001/REC-SVG-20010904/DTD/svg10.dtd">
<svg version="1.0" xmlns="http://www.w3.org/2000/svg"
 width="496.000000pt" height="472.000000pt" viewBox="0 0 496.000000 472.000000"
 preserveAspectRatio="xMidYMid meet">

<g transform="translate(0.000000,472.000000) scale(0.100000,-0.100000)"
fill="#000000" stroke="none">
<path d="M2525 4410 c-3 -5 -1 -10 4 -10 6 0 11 5 11 10 0 6 -2 10 -4 10 -3 0
-8 -4 -11 -10z"/>
<path d="M2275 4399 c-4 -5 -19 -7 -35 -4 -20 4 -29 2 -34 -10 -5 -13 -9 -13
-26 -3 -16 10 -24 10 -40 0 -11 -6 -25 -12 -31 -12 -24 0 -116 -50 -140 -76
-33 -35 -99 -139 -99 -154 0 -7 -16 -30 -35 -53 -20 -23 -40 -57 -46 -77 -19
-66 -37 -223 -29 -249 5 -14 11 -67 14 -118 3 -50 12 -111 20 -135 8 -23 17
-59 20 -78 5 -25 16 -41 39 -55 21 -13 34 -31 37 -50 5 -25 7 -27 13 -11 4 10
12 50 17 88 7 47 23 94 47 141 45 87 42 82 49 75 3 -4 0 -16 -6 -28 -7 -12 -8
-20 -2 -16 18 11 42 74 42 112 0 52 44 136 83 159 28 17 52 19 207 18 305 -2
302 -2 360 -56 28 -26 54 -47 58 -47 20 0 51 -49 62 -100 13 -56 27 -94 60
-165 40 -86 55 -372 24 -476 -22 -72 -55 -129 -76 -129 -10 0 -18 -5 -18 -11
0 -5 -4 -7 -10 -4 -5 3 -10 -2 -10 -12 0 -10 -12 -40 -25 -68 -28 -57 -30 -71
-12 -79 6 -4 2 -4 -10 -2 -16 3 -23 -1 -23 -11 0 -9 -6 -13 -15 -9 -15 5 -38
-13 -54 -43 -10 -17 -77 -43 -211 -81 -41 -11 -87 -25 -101 -29 -33 -10 -127
14 -154 39 -43 41 -34 18 12 -30 38 -40 60 -54 106 -67 75 -21 136 -75 115
-101 -20 -24 -36 -61 -44 -102 -9 -45 -47 -77 -95 -82 -22 -2 -39 -1 -39 3 0
3 -18 12 -40 19 -74 25 -153 99 -170 159 -7 28 -9 74 -4 131 7 90 1 140 -16
140 -10 0 -74 -93 -100 -144 -24 -47 -94 -100 -171 -131 -39 -15 -122 -55
-183 -89 -108 -60 -154 -83 -226 -113 -19 -8 -82 -38 -140 -65 -58 -28 -125
-58 -150 -67 -25 -9 -49 -26 -55 -37 -5 -11 -20 -34 -33 -52 -13 -17 -18 -32
-12 -32 6 0 15 10 20 23 5 13 9 16 9 6 1 -8 -4 -20 -11 -27 -6 -6 -12 -34 -12
-62 0 -32 -4 -50 -12 -50 -15 0 -27 -61 -15 -73 7 -7 3 -20 -11 -39 -28 -40
-46 -23 -25 23 9 19 21 59 27 89 6 30 14 66 17 80 6 22 5 24 -10 11 -10 -7
-17 -18 -17 -23 0 -5 -11 -34 -25 -64 -14 -31 -23 -59 -20 -64 3 -5 -3 -14
-13 -19 -20 -11 -37 -51 -22 -51 5 0 10 3 13 8 2 4 2 0 -1 -8 -3 -8 -7 -30
-10 -47 -2 -18 -9 -33 -14 -33 -6 0 -7 13 -3 33 5 21 4 29 -3 22 -32 -33 -151
-473 -167 -615 -3 -30 -8 -62 -10 -70 -3 -8 -12 -87 -20 -175 -12 -117 -16
-236 -13 -445 2 -157 -1 -300 -5 -318 l-9 -32 296 0 295 0 11 38 c5 20 15 89
20 152 6 63 17 129 24 145 35 74 48 127 43 164 -6 46 7 75 23 51 20 -30 9
-156 -30 -345 -6 -27 -10 -72 -10 -100 1 -27 -2 -62 -5 -78 l-7 -27 1072 0
1073 0 -6 43 c-8 58 12 187 28 187 13 0 63 -57 83 -95 5 -11 10 -37 9 -57 -1
-23 6 -45 18 -58 17 -19 28 -20 332 -20 l313 0 10 24 c11 29 4 96 -51 556 -14
114 -37 240 -59 325 -22 86 -46 211 -55 285 -7 65 -30 152 -91 350 -109 349
-121 373 -217 444 -42 31 -79 56 -82 56 -5 0 -114 66 -305 185 -41 25 -142 83
-224 128 l-150 82 -17 67 c-17 70 -51 128 -75 128 -11 0 -14 -16 -14 -69 0
-38 -3 -76 -6 -85 -9 -23 -38 -19 -66 9 -18 17 -32 23 -44 19 -16 -6 -17 -5
-6 7 6 7 12 26 12 42 0 22 4 28 15 23 8 -3 15 -1 15 3 0 5 -5 11 -11 13 -5 2
1 19 15 38 70 95 107 157 118 194 6 23 17 60 24 84 8 23 14 55 14 71 0 16 6
33 13 40 7 6 14 34 16 62 2 59 15 89 37 89 23 0 36 48 38 145 1 50 7 100 14
112 7 12 12 36 12 53 0 17 9 50 20 72 11 23 20 60 20 83 0 22 7 51 17 64 13
19 14 28 4 43 -9 14 -8 23 4 42 13 20 14 32 5 65 -6 23 -8 46 -5 51 3 5 0 20
-7 32 -6 13 -11 33 -9 46 1 12 -14 51 -33 86 -20 35 -36 70 -36 76 0 17 -42
49 -64 50 -10 0 -40 20 -66 44 -34 32 -62 48 -106 60 -32 8 -80 22 -105 31
-26 8 -54 15 -64 15 -9 0 -31 11 -50 25 -27 22 -49 27 -136 35 -135 12 -147
12 -154 -1z m715 -1075 c14 -42 9 -50 -20 -34 -16 8 -20 18 -16 33 3 12 6 28
6 35 0 23 18 3 30 -34z m-305 -1246 c-8 -50 -23 -75 -78 -135 -26 -28 -48 -43
-64 -43 -13 0 -22 -4 -19 -8 2 -4 0 -14 -5 -22 -8 -12 -12 -12 -16 -2 -6 16
-23 6 -23 -14 0 -8 5 -12 10 -9 6 3 10 1 10 -4 0 -7 -15 -9 -37 -6 -20 2 -43
-1 -50 -7 -10 -8 -17 -8 -25 0 -7 7 -19 12 -27 12 -11 0 -10 -4 4 -20 10 -11
15 -23 11 -27 -4 -5 -11 -1 -16 7 -5 9 -22 31 -39 50 -17 19 -31 40 -31 46 0
7 -7 14 -15 18 -13 5 -14 2 -4 -17 6 -12 18 -30 27 -40 24 -27 7 -31 -50 -14
-29 9 -65 19 -81 23 -19 4 -29 14 -33 33 -12 52 -37 126 -50 146 -21 30 -17
35 17 18 27 -14 32 -13 48 1 10 9 35 16 60 16 34 0 51 -7 87 -36 43 -36 74
-40 74 -10 0 8 13 17 30 21 16 4 32 11 35 16 8 12 82 12 90 -1 3 -5 22 -10 41
-10 40 0 41 -6 14 -62 -26 -54 -25 -62 2 -18 74 119 89 140 99 140 7 0 8 -14
4 -42z m-1891 -523 c-4 -8 -8 -15 -10 -15 -2 0 -4 7 -4 15 0 8 4 15 10 15 5 0
7 -7 4 -15z"/>
<path d="M2675 3540 c-100 -15 -124 -23 -146 -46 -18 -19 -20 -26 -9 -38 10
-13 8 -20 -8 -41 -28 -35 -37 -82 -22 -110 13 -24 56 -49 69 -40 5 2 23 0 42
-6 19 -6 45 -13 59 -15 26 -4 140 43 140 58 0 5 -28 6 -61 2 -44 -5 -60 -4
-55 4 6 10 73 45 109 56 28 9 32 35 8 57 -30 28 -86 50 -108 42 -14 -4 -15 -3
-7 6 13 14 82 18 132 7 31 -7 39 -1 24 20 -10 14 -90 54 -105 53 -7 -1 -34 -5
-62 -9z m80 -122 c40 -18 29 -29 -12 -11 -21 8 -40 17 -42 19 -9 9 30 3 54 -8z
m-21 -37 c7 -10 -18 -34 -27 -25 -7 8 3 34 13 34 5 0 11 -4 14 -9z m-114 -21
c0 -5 -2 -10 -4 -10 -3 0 -8 5 -11 10 -3 6 -1 10 4 10 6 0 11 -4 11 -10z"/>
<path d="M2070 3496 c0 -20 6 -24 53 -31 28 -5 77 -9 107 -9 44 -1 55 2 58 16
4 23 -33 33 -130 33 -42 0 -74 3 -71 8 2 4 -1 7 -6 7 -6 0 -11 -11 -11 -24z"/>
<path d="M2145 3433 l-30 -5 25 -13 24 -13 -39 -11 c-69 -18 -113 -60 -60 -57
17 1 25 7 25 19 0 31 44 18 48 -15 2 -20 10 -28 33 -33 l30 -7 -22 -19 c-12
-10 -26 -19 -31 -19 -4 0 -8 -5 -8 -11 0 -15 71 -4 109 16 15 7 39 31 54 53
l26 40 -22 20 c-35 32 -90 62 -112 60 -11 0 -33 -3 -50 -5z"/>
<path d="M1843 3292 c-1 -36 1 -41 7 -22 11 33 12 70 3 70 -5 0 -9 -21 -10
-48z"/>
<path d="M1876 3218 c-19 -27 -21 -59 -4 -76 21 -21 27 -13 27 43 0 30 -2 55
-4 55 -2 0 -11 -10 -19 -22z"/>
<path d="M2600 3095 c0 -18 5 -37 10 -40 24 -15 6 -22 -55 -23 -50 -1 -73 -7
-95 -22 l-30 -21 -46 20 c-54 24 -74 26 -74 7 0 -7 -6 -19 -14 -26 -18 -14
-10 -40 13 -40 9 0 34 -7 56 -15 22 -8 55 -14 73 -15 l33 0 -26 -24 -27 -25
68 5 c37 3 71 7 75 10 10 6 39 -6 39 -16 0 -5 -7 -16 -16 -25 -24 -24 -10 -29
26 -10 27 14 37 15 56 4 13 -7 24 -18 24 -26 0 -31 17 -9 35 45 10 31 27 68
37 81 29 38 23 70 -16 86 -18 8 -51 32 -72 53 -57 56 -74 60 -74 17z m16 -151
c19 -9 34 -20 34 -25 0 -12 -147 -11 -155 1 -6 9 47 38 73 39 8 1 29 -6 48
-15z"/>
<path d="M2166 3034 c-9 -8 -16 -20 -16 -26 0 -6 1 -9 3 -7 1 2 11 14 21 27
22 25 16 30 -8 6z"/>
<path d="M2147 2952 c-21 -23 -21 -35 -3 -70 10 -20 27 -31 61 -40 26 -7 49
-11 51 -9 2 2 -2 16 -9 30 -10 22 -17 26 -39 22 -51 -11 -40 26 18 62 18 11
17 12 -8 12 -14 1 -33 3 -40 6 -8 3 -22 -3 -31 -13z"/>
<path d="M2325 2880 c28 -12 47 -12 40 0 -3 6 -18 10 -33 9 -24 0 -25 -1 -7
-9z"/>
<path d="M2530 2810 c0 -5 5 -10 10 -10 6 0 10 5 10 10 0 6 -4 10 -10 10 -5 0
-10 -4 -10 -10z"/>
<path d="M2500 2789 c0 -5 5 -7 10 -4 6 3 10 8 10 11 0 2 -4 4 -10 4 -5 0 -10
-5 -10 -11z"/>
<path d="M2030 2712 c6 -13 14 -21 18 -18 3 4 -2 14 -12 24 -18 16 -18 16 -6
-6z"/>
<path d="M2450 2726 c0 -2 7 -7 16 -10 8 -3 12 -2 9 4 -6 10 -25 14 -25 6z"/>
<path d="M2440 2677 c-28 -8 -45 -18 -45 -27 0 -20 83 -41 107 -26 19 12 39
51 31 60 -9 9 -41 6 -93 -7z"/>
</g>
</svg>
